<svg xmlns="http://www.w3.org/2000/svg" viewBox="0 0 120 120" width="120" height="120">
  <path d="M40.5 48 A19.5 30 0 0 1 79.5 48" fill="none" stroke="#f3f0eb" stroke-width="5.5" stroke-linecap="round"/>
  <rect x="38.5" y="49" width="43" height="46" rx="3" fill="#2a241f"/>

  <path d="M60 72 C65.6 78.5 67 82 65.4 86 A5.7 5.7 0 0 1 54.6 86 C53 82 54.4 78.5 60 72 Z" fill="rgba(255,255,255,0.15)"/>

  <rect x="34" y="50" width="5" height="46" rx="2.5" fill="#f3f0eb"/>
  <rect x="81" y="50" width="5" height="46" rx="2.5" fill="#f3f0eb"/>
  <path d="M50 36 H70 L87 51 H33 Z" fill="#f3f0eb" stroke="#f3f0eb" stroke-width="3" stroke-linejoin="round"/>
  <circle cx="40.5" cy="48" r="3.2" fill="#f3f0eb"/>
  <circle cx="79.5" cy="48" r="3.2" fill="#f3f0eb"/>
  <rect x="31" y="92" width="58" height="9" rx="4.5" fill="#f3f0eb"/>
  <rect x="38" y="101" width="44" height="5" rx="2.5" fill="#f3f0eb"/>
</svg>
